<?xml version="1.0" encoding="UTF-8" standalone="no"?>
<!DOCTYPE svg PUBLIC "-//W3C//DTD SVG 1.1//EN" "http://www.w3.org/Graphics/SVG/1.1/DTD/svg11.dtd">
<svg width="100%" height="100%" viewBox="0 0 932 322" version="1.1" xmlns="http://www.w3.org/2000/svg" xmlns:xlink="http://www.w3.org/1999/xlink" xml:space="preserve" xmlns:serif="http://www.serif.com/" style="fill-rule:evenodd;clip-rule:evenodd;stroke-miterlimit:1.5;">
    <g transform="matrix(1,0,0,1,-29.353025,-443.854761)">
        <g>
            <path d="M56,583L78.006,596.502L64.504,618.507L42.498,605.006L56,583L86,563L130,563L167,599L167,752L218,752" style="fill:none;stroke:black;stroke-width:14.58px;"/>
        </g>
        <path d="M167,643.578L74,665L42.498,691L42.498,733L66,752L115,752L137,730L167,682" style="fill:none;stroke:black;stroke-width:14.58px;stroke-linejoin:round;"/>
    </g>
    <g transform="matrix(1,0,0,1,167.166217,-443.854761)">
        <g>
            <path d="M56,583L78.006,596.502L64.504,618.507L42.498,605.006L56,583L86,563L130,563L167,599L167,752L218,752" style="fill:none;stroke:black;stroke-width:14.58px;"/>
        </g>
        <path d="M167,643.578L74,665L42.498,691L42.498,733L66,752L115,752L137,730L167,682" style="fill:none;stroke:black;stroke-width:14.58px;stroke-linejoin:round;"/>
    </g>
    <g transform="matrix(1,0,0,1,-29.816276,-443.854761)">
        <g transform="matrix(1,0,0,1,402,0)">
            <g transform="matrix(1.067788,0,0,1,-2.304781,0)">
                <path d="M167,714L130,752L86,752L56,730L34,684L34,634L56,589L86,563L130,563L167,599L167,752L218,752" style="fill:none;stroke:black;stroke-width:14.1px;"/>
            </g>
        </g>
        <g transform="matrix(1.067788,0,0,1,-29.555427,0)">
            <path d="M569,599L569,457L514,457" style="fill:none;stroke:black;stroke-width:14.1px;stroke-linecap:square;"/>
        </g>
    </g>
    <g transform="matrix(1,0,0,1,-29.816276,-443.854761)">
        <path d="M632.473,563L697.984,563L697.984,752" style="fill:none;stroke:black;stroke-width:14.58px;stroke-linecap:square;"/>
        <g transform="matrix(0.69817,0,0,1,215.244201,0)">
            <path d="M645.498,752L737.373,752" style="fill:none;stroke:black;stroke-width:16.91px;stroke-linecap:square;"/>
        </g>
        <g transform="matrix(0.69817,0,0,1,319.260397,0)">
            <path d="M645.498,752L737.373,752" style="fill:none;stroke:black;stroke-width:16.91px;stroke-linecap:square;"/>
        </g>
        <g transform="matrix(0.69817,0,0,1,433.197891,0)">
            <path d="M645.498,752L737.373,752" style="fill:none;stroke:black;stroke-width:16.91px;stroke-linecap:square;"/>
        </g>
        <path d="M697.984,618.507L714.984,590L743.921,563L780,563L802,599L802,752" style="fill:none;stroke:black;stroke-width:14.58px;"/>
        <g transform="matrix(1,0,0,1,113.937494,0)">
            <path d="M692.617,627.507L714.984,590L743.921,563L780,563L802,599L802,752" style="fill:none;stroke:black;stroke-width:14.58px;stroke-linecap:square;"/>
        </g>
    </g>
</svg>
