<?xml version="1.0" encoding="UTF-8" standalone="no" ?>
<!DOCTYPE svg PUBLIC "-//W3C//DTD SVG 1.1//EN"
    "http://www.w3.org/Graphics/SVG/1.1/DTD/svg11.dtd">
<svg
    width="100%"
    height="100%"
    viewBox="0 0 1052 72"
    version="1.1"
    xmlns="http://www.w3.org/2000/svg"
    xmlns:xlink="http://www.w3.org/1999/xlink"
    xml:space="preserve"
    xmlns:serif="http://www.serif.com/"
    style="fill-rule:evenodd;clip-rule:evenodd;stroke-linejoin:round;stroke-miterlimit:2;"
>
    <g transform="matrix(1,0,0,1,-114.422435,-288.206908)">
        <g transform="matrix(0.71604,0,0,0.71604,-17.08316,150.344184)">
            <g transform="matrix(97.723245,0,0,97.723245,182.679482,267)">
                <path
                    d="M0.01,-0L0.28,-0L0.28,-0.047L0.168,-0.047L0.168,-0.636L0.28,-0.636L0.28,-0.683L0.01,-0.683L0.01,-0.636L0.121,-0.636L0.121,-0.047L0.01,-0.047L0.01,-0Z"
                    style="fill-rule:nonzero;"
                />
            </g>
            <g transform="matrix(97.723245,0,0,97.723245,211.019223,267)">
                <path
                    d="M0.297,-0L0.56,-0L0.56,-0.047L0.449,-0.047L0.449,-0.406L0.364,-0.508L0.258,-0.508L0.18,-0.446L0.148,-0.383L0.148,-0.508L-0.01,-0.508L-0.01,-0.461L0.101,-0.461L0.101,-0.047L-0.01,-0.047L-0.01,-0L0.253,-0L0.253,-0.047L0.148,-0.047L0.148,-0.301L0.213,-0.416L0.274,-0.461L0.343,-0.461L0.402,-0.388L0.402,-0.047L0.297,-0.047L0.297,-0Z"
                    style="fill-rule:nonzero;"
                />
            </g>
            <g transform="matrix(97.723245,0,0,97.723245,263.789775,267)">
                <path
                    d="M0.149,-0L0.308,-0L0.4,-0.082L0.4,-0.187L0.316,-0.268L0.18,-0.285L0.104,-0.343L0.104,-0.409L0.168,-0.462L0.275,-0.462L0.345,-0.409L0.345,-0.325L0.392,-0.325L0.392,-0.508L0.345,-0.508L0.345,-0.463L0.291,-0.508L0.15,-0.508L0.057,-0.43L0.057,-0.32L0.161,-0.239L0.295,-0.224L0.353,-0.167L0.353,-0.103L0.291,-0.046L0.165,-0.046L0.087,-0.104L0.087,-0.183L0.04,-0.183L0.04,-0L0.087,-0L0.087,-0.05L0.149,-0Z"
                    style="fill-rule:nonzero;"
                />
            </g>
            <g transform="matrix(97.723245,0,0,97.723245,307.276619,267)">
                <path
                    d="M0.247,-0L0.358,-0L0.453,-0.071L0.505,-0.188L0.505,-0.321L0.453,-0.437L0.359,-0.508L0.247,-0.508L0.164,-0.437L0.148,-0.4L0.148,-0.508L-0.01,-0.508L-0.01,-0.461L0.101,-0.461L0.101,0.217L-0.01,0.217L-0.01,0.264L0.26,0.264L0.26,0.217L0.148,0.217L0.148,-0.109L0.164,-0.071L0.247,-0ZM0.148,-0.196L0.148,-0.314L0.19,-0.407L0.263,-0.461L0.343,-0.461L0.416,-0.407L0.458,-0.312L0.458,-0.198L0.416,-0.101L0.342,-0.047L0.263,-0.047L0.19,-0.101L0.148,-0.196Z"
                    style="fill-rule:nonzero;"
                />
            </g>
            <g transform="matrix(97.723245,0,0,97.723245,360.047171,267)">
                <path
                    d="M-0.01,-0L0.26,-0L0.26,-0.047L0.148,-0.047L0.148,-0.508L-0.01,-0.508L-0.01,-0.461L0.101,-0.461L0.101,-0.047L-0.01,-0.047L-0.01,-0ZM0.096,-0.62L0.155,-0.62L0.184,-0.672L0.153,-0.723L0.097,-0.723L0.066,-0.672L0.096,-0.62ZM0.12,-0.662L0.114,-0.672L0.12,-0.682L0.13,-0.682L0.136,-0.672L0.13,-0.662L0.12,-0.662Z"
                    style="fill-rule:nonzero;"
                />
            </g>
            <g transform="matrix(97.723245,0,0,97.723245,385.162045,267)">
                <path
                    d="M-0.01,-0L0.26,-0L0.26,-0.047L0.148,-0.047L0.148,-0.197L0.225,-0.381L0.291,-0.461L0.311,-0.461L0.35,-0.396L0.412,-0.396L0.447,-0.452L0.412,-0.508L0.269,-0.508L0.186,-0.406L0.148,-0.296L0.148,-0.508L-0.01,-0.508L-0.01,-0.461L0.101,-0.461L0.101,-0.047L-0.01,-0.047L-0.01,-0ZM0.365,-0.461L0.386,-0.461L0.391,-0.452L0.386,-0.443L0.376,-0.443L0.365,-0.461Z"
                    style="fill-rule:nonzero;"
                />
            </g>
            <g transform="matrix(97.723245,0,0,97.723245,424.837682,267)">
                <path
                    d="M0.347,-0L0.506,-0L0.506,-0.047L0.394,-0.047L0.394,-0.405L0.29,-0.508L0.173,-0.508L0.078,-0.446L0.041,-0.383L0.074,-0.328L0.135,-0.328L0.171,-0.385L0.142,-0.431L0.187,-0.461L0.271,-0.461L0.347,-0.386L0.347,-0.304L0.124,-0.256L0.043,-0.176L0.043,-0.065L0.117,-0L0.244,-0L0.32,-0.066L0.347,-0.125L0.347,-0ZM0.09,-0.086L0.09,-0.156L0.148,-0.213L0.347,-0.26L0.347,-0.192L0.286,-0.095L0.227,-0.046L0.135,-0.046L0.09,-0.086ZM0.095,-0.384L0.105,-0.4L0.115,-0.384L0.109,-0.375L0.1,-0.375L0.095,-0.384Z"
                    style="fill-rule:nonzero;"
                />
            </g>
            <g transform="matrix(97.723245,0,0,97.723245,470.669884,267)">
                <path
                    d="M0.195,-0L0.315,-0L0.407,-0.07L0.456,-0.183L0.414,-0.202L0.369,-0.1L0.299,-0.047L0.21,-0.047L0.132,-0.101L0.085,-0.198L0.085,-0.309L0.132,-0.405L0.211,-0.461L0.301,-0.461L0.35,-0.428L0.323,-0.383L0.356,-0.327L0.418,-0.327L0.453,-0.383L0.417,-0.441L0.315,-0.508L0.195,-0.508L0.094,-0.437L0.038,-0.32L0.038,-0.187L0.094,-0.069L0.195,-0ZM0.378,-0.383L0.387,-0.399L0.397,-0.383L0.392,-0.374L0.383,-0.374L0.378,-0.383Z"
                    style="fill-rule:nonzero;"
                />
            </g>
            <g transform="matrix(97.723245,0,0,97.723245,517.088425,267)">
                <path
                    d="M-0.01,-0L0.26,-0L0.26,-0.047L0.148,-0.047L0.148,-0.508L-0.01,-0.508L-0.01,-0.461L0.101,-0.461L0.101,-0.047L-0.01,-0.047L-0.01,-0ZM0.096,-0.62L0.155,-0.62L0.184,-0.672L0.153,-0.723L0.097,-0.723L0.066,-0.672L0.096,-0.62ZM0.12,-0.662L0.114,-0.672L0.12,-0.682L0.13,-0.682L0.136,-0.672L0.13,-0.662L0.12,-0.662Z"
                    style="fill-rule:nonzero;"
                />
            </g>
            <g transform="matrix(97.723245,0,0,97.723245,540.053388,267)">
                <path
                    d="M0.195,-0L0.323,-0L0.424,-0.07L0.48,-0.187L0.48,-0.32L0.424,-0.438L0.323,-0.508L0.195,-0.508L0.094,-0.438L0.038,-0.321L0.038,-0.187L0.094,-0.07L0.195,-0ZM0.21,-0.047L0.132,-0.101L0.085,-0.198L0.085,-0.31L0.132,-0.406L0.21,-0.461L0.309,-0.461L0.387,-0.406L0.433,-0.309L0.433,-0.198L0.387,-0.101L0.309,-0.047L0.21,-0.047ZM0.237,-0.589L0.372,-0.734L0.343,-0.762L0.208,-0.617L0.237,-0.589Z"
                    style="fill-rule:nonzero;"
                />
            </g>
            <g transform="matrix(97.723245,0,0,97.723245,590.380859,267)">
                <path
                    d="M0.297,-0L0.56,-0L0.56,-0.047L0.449,-0.047L0.449,-0.406L0.364,-0.508L0.258,-0.508L0.18,-0.446L0.148,-0.383L0.148,-0.508L-0.01,-0.508L-0.01,-0.461L0.101,-0.461L0.101,-0.047L-0.01,-0.047L-0.01,-0L0.253,-0L0.253,-0.047L0.148,-0.047L0.148,-0.301L0.213,-0.416L0.274,-0.461L0.343,-0.461L0.402,-0.388L0.402,-0.047L0.297,-0.047L0.297,-0Z"
                    style="fill-rule:nonzero;"
                />
            </g>
            <g transform="matrix(97.723245,0,0,97.723245,709.151411,267)">
                <path
                    d="M0.195,-0L0.315,-0L0.407,-0.07L0.456,-0.183L0.414,-0.202L0.369,-0.1L0.299,-0.047L0.21,-0.047L0.132,-0.101L0.085,-0.198L0.085,-0.309L0.132,-0.405L0.211,-0.461L0.301,-0.461L0.35,-0.428L0.323,-0.383L0.356,-0.327L0.418,-0.327L0.453,-0.383L0.417,-0.441L0.315,-0.508L0.195,-0.508L0.094,-0.437L0.038,-0.32L0.038,-0.187L0.094,-0.069L0.195,-0ZM0.378,-0.383L0.387,-0.399L0.397,-0.383L0.392,-0.374L0.383,-0.374L0.378,-0.383Z"
                    style="fill-rule:nonzero;"
                />
            </g>
            <g transform="matrix(97.723245,0,0,97.723245,755.569952,267)">
                <path
                    d="M-0.01,-0L0.26,-0L0.26,-0.047L0.148,-0.047L0.148,-0.197L0.225,-0.381L0.291,-0.461L0.311,-0.461L0.35,-0.396L0.412,-0.396L0.447,-0.452L0.412,-0.508L0.269,-0.508L0.186,-0.406L0.148,-0.296L0.148,-0.508L-0.01,-0.508L-0.01,-0.461L0.101,-0.461L0.101,-0.047L-0.01,-0.047L-0.01,-0ZM0.365,-0.461L0.386,-0.461L0.391,-0.452L0.386,-0.443L0.376,-0.443L0.365,-0.461Z"
                    style="fill-rule:nonzero;"
                />
            </g>
            <g transform="matrix(97.723245,0,0,97.723245,796.320545,267)">
                <path
                    d="M0.197,-0L0.315,-0L0.415,-0.07L0.47,-0.182L0.428,-0.202L0.379,-0.102L0.3,-0.047L0.212,-0.047L0.132,-0.102L0.085,-0.198L0.085,-0.31L0.132,-0.407L0.212,-0.461L0.3,-0.461L0.378,-0.407L0.41,-0.339L0.41,-0.331L0.13,-0.331L0.13,-0.284L0.457,-0.284L0.457,-0.348L0.416,-0.438L0.315,-0.508L0.197,-0.508L0.096,-0.438L0.038,-0.321L0.038,-0.187L0.096,-0.07L0.197,-0Z"
                    style="fill-rule:nonzero;"
                />
            </g>
            <g transform="matrix(97.723245,0,0,97.723245,844.791275,267)">
                <path
                    d="M0.347,-0L0.506,-0L0.506,-0.047L0.394,-0.047L0.394,-0.405L0.29,-0.508L0.173,-0.508L0.078,-0.446L0.041,-0.383L0.074,-0.328L0.135,-0.328L0.171,-0.385L0.142,-0.431L0.187,-0.461L0.271,-0.461L0.347,-0.386L0.347,-0.304L0.124,-0.256L0.043,-0.176L0.043,-0.065L0.117,-0L0.244,-0L0.32,-0.066L0.347,-0.125L0.347,-0ZM0.09,-0.086L0.09,-0.156L0.148,-0.213L0.347,-0.26L0.347,-0.192L0.286,-0.095L0.227,-0.046L0.135,-0.046L0.09,-0.086ZM0.095,-0.384L0.105,-0.4L0.115,-0.384L0.109,-0.375L0.1,-0.375L0.095,-0.384Z"
                    style="fill-rule:nonzero;"
                />
            </g>
            <g transform="matrix(97.723245,0,0,97.723245,891.307539,267)">
                <path
                    d="M0.159,-0L0.266,-0L0.341,-0.084L0.341,-0.201L0.294,-0.201L0.294,-0.103L0.245,-0.047L0.181,-0.047L0.138,-0.102L0.138,-0.417L0.091,-0.417L0.091,-0.085L0.159,-0ZM-0.02,-0.461L0.334,-0.461L0.334,-0.508L0.138,-0.508L0.138,-0.654L0.091,-0.654L0.091,-0.508L-0.02,-0.508L-0.02,-0.461Z"
                    style="fill-rule:nonzero;"
                />
            </g>
            <g transform="matrix(97.723245,0,0,97.723245,926.487907,267)">
                <path
                    d="M-0.01,-0L0.26,-0L0.26,-0.047L0.148,-0.047L0.148,-0.508L-0.01,-0.508L-0.01,-0.461L0.101,-0.461L0.101,-0.047L-0.01,-0.047L-0.01,-0ZM0.096,-0.62L0.155,-0.62L0.184,-0.672L0.153,-0.723L0.097,-0.723L0.066,-0.672L0.096,-0.62ZM0.12,-0.662L0.114,-0.672L0.12,-0.682L0.13,-0.682L0.136,-0.672L0.13,-0.662L0.12,-0.662Z"
                    style="fill-rule:nonzero;"
                />
            </g>
            <g transform="matrix(97.723245,0,0,97.723245,948.573361,267)">
                <path
                    d="M0.244,0.009L0.288,-0.009L0.268,-0.059L0.435,-0.461L0.537,-0.461L0.537,-0.508L0.272,-0.508L0.272,-0.461L0.384,-0.461L0.244,-0.121L0.111,-0.461L0.224,-0.461L0.224,-0.508L-0.04,-0.508L-0.04,-0.461L0.061,-0.461L0.244,0.009Z"
                    style="fill-rule:nonzero;"
                />
            </g>
            <g transform="matrix(97.723245,0,0,97.723245,995.675965,267)">
                <path
                    d="M0.347,-0L0.506,-0L0.506,-0.047L0.394,-0.047L0.394,-0.405L0.29,-0.508L0.173,-0.508L0.078,-0.446L0.041,-0.383L0.074,-0.328L0.135,-0.328L0.171,-0.385L0.142,-0.431L0.187,-0.461L0.271,-0.461L0.347,-0.386L0.347,-0.304L0.124,-0.256L0.043,-0.176L0.043,-0.065L0.117,-0L0.244,-0L0.32,-0.066L0.347,-0.125L0.347,-0ZM0.09,-0.086L0.09,-0.156L0.148,-0.213L0.347,-0.26L0.347,-0.192L0.286,-0.095L0.227,-0.046L0.135,-0.046L0.09,-0.086ZM0.095,-0.384L0.105,-0.4L0.115,-0.384L0.109,-0.375L0.1,-0.375L0.095,-0.384Z"
                    style="fill-rule:nonzero;"
                />
            </g>
            <g transform="matrix(97.723245,0,0,97.723245,1109.169461,267)">
                <path
                    d="M0.197,-0L0.315,-0L0.415,-0.07L0.47,-0.182L0.428,-0.202L0.379,-0.102L0.3,-0.047L0.212,-0.047L0.132,-0.102L0.085,-0.198L0.085,-0.31L0.132,-0.407L0.212,-0.461L0.3,-0.461L0.378,-0.407L0.41,-0.339L0.41,-0.331L0.13,-0.331L0.13,-0.284L0.457,-0.284L0.457,-0.348L0.416,-0.438L0.315,-0.508L0.197,-0.508L0.096,-0.438L0.038,-0.321L0.038,-0.187L0.096,-0.07L0.197,-0Z"
                    style="fill-rule:nonzero;"
                />
            </g>
            <g transform="matrix(97.723245,0,0,97.723245,1157.640191,267)">
                <path
                    d="M0.297,-0L0.56,-0L0.56,-0.047L0.449,-0.047L0.449,-0.406L0.364,-0.508L0.258,-0.508L0.18,-0.446L0.148,-0.383L0.148,-0.508L-0.01,-0.508L-0.01,-0.461L0.101,-0.461L0.101,-0.047L-0.01,-0.047L-0.01,-0L0.253,-0L0.253,-0.047L0.148,-0.047L0.148,-0.301L0.213,-0.416L0.274,-0.461L0.343,-0.461L0.402,-0.388L0.402,-0.047L0.297,-0.047L0.297,-0Z"
                    style="fill-rule:nonzero;"
                />
            </g>
            <g transform="matrix(97.723245,0,0,97.723245,1276.410743,267)">
                <path
                    d="M0.195,-0L0.315,-0L0.407,-0.07L0.456,-0.183L0.414,-0.202L0.369,-0.1L0.299,-0.047L0.21,-0.047L0.132,-0.101L0.085,-0.198L0.085,-0.309L0.132,-0.405L0.211,-0.461L0.301,-0.461L0.35,-0.428L0.323,-0.383L0.356,-0.327L0.418,-0.327L0.453,-0.383L0.417,-0.441L0.315,-0.508L0.195,-0.508L0.094,-0.437L0.038,-0.32L0.038,-0.187L0.094,-0.069L0.195,-0ZM0.378,-0.383L0.387,-0.399L0.397,-0.383L0.392,-0.374L0.383,-0.374L0.378,-0.383Z"
                    style="fill-rule:nonzero;"
                />
            </g>
            <g transform="matrix(97.723245,0,0,97.723245,1323.90424,267)">
                <path
                    d="M0.195,-0L0.323,-0L0.424,-0.07L0.48,-0.187L0.48,-0.32L0.424,-0.438L0.323,-0.508L0.195,-0.508L0.094,-0.438L0.038,-0.321L0.038,-0.187L0.094,-0.07L0.195,-0ZM0.21,-0.047L0.132,-0.101L0.085,-0.198L0.085,-0.31L0.132,-0.406L0.21,-0.461L0.309,-0.461L0.387,-0.406L0.433,-0.309L0.433,-0.198L0.387,-0.101L0.309,-0.047L0.21,-0.047Z"
                    style="fill-rule:nonzero;"
                />
            </g>
            <g transform="matrix(97.723245,0,0,97.723245,1374.231711,267)">
                <path
                    d="M0.297,-0L0.56,-0L0.56,-0.047L0.449,-0.047L0.449,-0.406L0.364,-0.508L0.258,-0.508L0.18,-0.446L0.148,-0.383L0.148,-0.508L-0.01,-0.508L-0.01,-0.461L0.101,-0.461L0.101,-0.047L-0.01,-0.047L-0.01,-0L0.253,-0L0.253,-0.047L0.148,-0.047L0.148,-0.301L0.213,-0.416L0.274,-0.461L0.343,-0.461L0.402,-0.388L0.402,-0.047L0.297,-0.047L0.297,-0Z"
                    style="fill-rule:nonzero;"
                />
            </g>
            <g transform="matrix(97.723245,0,0,97.723245,1422.99561,267)">
                <path
                    d="M-0.042,0.264L0.084,0.264L0.196,0.121L0.196,-0.508L0.038,-0.508L0.038,-0.461L0.149,-0.461L0.149,0.105L0.06,0.217L0.02,0.217L0.04,0.185L0.005,0.129L-0.057,0.129L-0.09,0.184L-0.042,0.264ZM0.12,-0.62L0.179,-0.62L0.208,-0.672L0.177,-0.723L0.121,-0.723L0.09,-0.672L0.12,-0.62ZM0.144,-0.662L0.138,-0.672L0.144,-0.682L0.154,-0.682L0.16,-0.672L0.154,-0.662L0.144,-0.662ZM-0.035,0.184L-0.03,0.175L-0.021,0.175L-0.015,0.184L-0.025,0.2L-0.035,0.184Z"
                    style="fill-rule:nonzero;"
                />
            </g>
            <g transform="matrix(97.723245,0,0,97.723245,1447.230975,267)">
                <path
                    d="M0.175,-0L0.283,-0L0.367,-0.066L0.394,-0.122L0.394,-0L0.552,-0L0.552,-0.047L0.441,-0.047L0.441,-0.508L0.282,-0.508L0.282,-0.461L0.394,-0.461L0.394,-0.208L0.332,-0.096L0.267,-0.047L0.197,-0.047L0.138,-0.121L0.138,-0.508L-0.02,-0.508L-0.02,-0.461L0.091,-0.461L0.091,-0.105L0.175,-0Z"
                    style="fill-rule:nonzero;"
                />
            </g>
            <g transform="matrix(97.723245,0,0,97.723245,1500.881036,267)">
                <path
                    d="M0.297,-0L0.56,-0L0.56,-0.047L0.449,-0.047L0.449,-0.406L0.364,-0.508L0.258,-0.508L0.18,-0.446L0.148,-0.383L0.148,-0.508L-0.01,-0.508L-0.01,-0.461L0.101,-0.461L0.101,-0.047L-0.01,-0.047L-0.01,-0L0.253,-0L0.253,-0.047L0.148,-0.047L0.148,-0.301L0.213,-0.416L0.274,-0.461L0.343,-0.461L0.402,-0.388L0.402,-0.047L0.297,-0.047L0.297,-0Z"
                    style="fill-rule:nonzero;"
                />
            </g>
            <g transform="matrix(97.723245,0,0,97.723245,1552.674356,267)">
                <path
                    d="M0.159,-0L0.266,-0L0.341,-0.084L0.341,-0.201L0.294,-0.201L0.294,-0.103L0.245,-0.047L0.181,-0.047L0.138,-0.102L0.138,-0.417L0.091,-0.417L0.091,-0.085L0.159,-0ZM-0.02,-0.461L0.334,-0.461L0.334,-0.508L0.138,-0.508L0.138,-0.654L0.091,-0.654L0.091,-0.508L-0.02,-0.508L-0.02,-0.461Z"
                    style="fill-rule:nonzero;"
                />
            </g>
            <g transform="matrix(97.723245,0,0,97.723245,1587.659277,267)">
                <path
                    d="M0.195,-0L0.323,-0L0.424,-0.07L0.48,-0.187L0.48,-0.32L0.424,-0.438L0.323,-0.508L0.195,-0.508L0.094,-0.438L0.038,-0.321L0.038,-0.187L0.094,-0.07L0.195,-0ZM0.21,-0.047L0.132,-0.101L0.085,-0.198L0.085,-0.31L0.132,-0.406L0.21,-0.461L0.309,-0.461L0.387,-0.406L0.433,-0.309L0.433,-0.198L0.387,-0.101L0.309,-0.047L0.21,-0.047Z"
                    style="fill-rule:nonzero;"
                />
            </g>
            <g transform="matrix(97.723245,0,0,97.723245,1635.348221,267)">
                <path
                    d="M0.067,-0L0.134,-0L0.167,-0.059L0.134,-0.119L0.067,-0.119L0.034,-0.059L0.067,-0ZM0.094,-0.048L0.087,-0.059L0.094,-0.071L0.107,-0.071L0.113,-0.059L0.107,-0.048L0.094,-0.048Z"
                    style="fill-rule:nonzero;"
                />
            </g>
            <g transform="matrix(1,0,0,1,484.151411,-27)">
                <circle cx="192" cy="261" r="33" style="fill:rgb(54,228,82);" />
            </g>
            <g transform="matrix(1,0,0,1,884.169461,-27)">
                <circle cx="192" cy="261" r="33" style="fill:rgb(54,228,82);" />
            </g>
            <g transform="matrix(1,0,0,1,1051.410743,-27)">
                <circle cx="192" cy="261" r="33" style="fill:rgb(54,228,82);" />
            </g>
        </g>
    </g>
</svg>
